<svg xmlns="http://www.w3.org/2000/svg" viewBox="0 0 17 24.05">
  <defs>
    <style>
      .cls-1 {
        fill: #3778ff;
      }
    </style>
  </defs>
  <g id="noun_Share_Soft_620334" data-name="noun_Share Soft_620334" transform="translate(0 0)">
    <g id="Group_109" data-name="Group 109">
      <path id="Path_68" data-name="Path 68" class="cls-1" d="M23,10.5H19a.5.5,0,0,0,0,1h3.5v15H7.5v-15H11a.5.5,0,0,0,0-1H7a.472.472,0,0,0-.5.5V27a.472.472,0,0,0,.5.5H23a.472.472,0,0,0,.5-.5V11A.472.472,0,0,0,23,10.5Z" transform="translate(-6.5 -3.45)"/>
      <path id="Path_69" data-name="Path 69" class="cls-1" d="M11.4,8.4l3.1-3.1V19a.5.5,0,0,0,1,0V5.2l3.1,3.1a.495.495,0,0,0,.7-.7l-4-4a.483.483,0,0,0-.7,0l-4,4a.483.483,0,0,0,0,.7A.783.783,0,0,0,11.4,8.4Z" transform="translate(-6.5 -3.45)"/>
    </g>
  </g>
</svg>
